<svg class="logo-svg" viewBox="1350 -670 3150 4250" xmlns="http://www.w3.org/2000/svg" xmlns:xlink="http://www.w3.org/1999/xlink" xml:space="preserve" overflow="visible">
    <g transform="translate(-1379 646)">
        <path d="M2751.5 2432.5 2710 2639.5 2668.5 2432.5Z" stroke="#696969" stroke-width="4.58333" stroke-miterlimit="8" fill="#696969" fill-rule="evenodd"/>
        <path d="M2826.5 2432.5 2785.5 2639.5 2744.5 2432.5Z" stroke="#696969" stroke-width="4.58333" stroke-miterlimit="8" fill="#696969" fill-rule="evenodd"/>
        <path d="M2902.5 2432.5 2861 2639.5 2819.5 2432.5Z" stroke="#696969" stroke-width="4.58333" stroke-miterlimit="8" fill="#696969" fill-rule="evenodd"/>
        <path d="M2977.5 2432.5 2936.5 2639.5 2895.5 2432.5Z" stroke="#696969" stroke-width="4.58333" stroke-miterlimit="8" fill="#696969" fill-rule="evenodd"/>
        <path d="M3053.5 2432.5 3012.5 2639.5 2971.5 2432.5Z" stroke="#696969" stroke-width="4.58333" stroke-miterlimit="8" fill="#696969" fill-rule="evenodd"/>
        <path d="M3129.5 2432.5 3088 2639.5 3046.5 2432.5Z" stroke="#696969" stroke-width="4.58333" stroke-miterlimit="8" fill="#696969" fill-rule="evenodd"/>
        <rect x="2656.5" y="2242.5" width="502" height="240" stroke="#696969" stroke-width="4.58333" stroke-miterlimit="8" fill="#696969"/>
        <path d="M2702.09 2527.79 2035.3 2376.56 1602.23 3442 2007.8 2321.57 2708.97 2452.17 2014.68 2218.47 1451 2988.33 1980.31 2149.73 2715.84 2424.68 2282.77 2142.85 1987.18 2685.88 2248.4 2026 2729.59 2417.81 3121.41 2390.31 3575.1 2046.62 3911.94 2706.5 3547.61 2142.85 3135.16 2445.3 3850.07 2163.48 4400 2967.71 3829.45 2239.09 3087.04 2500.29 3815.7 2328.45 4269.39 3428.25 3801.95 2390.31 3128.29 2527.79 2702.09 2527.79Z" stroke="#696969" stroke-width="30" stroke-miterlimit="8" fill="#696969" fill-rule="evenodd"/>
        <rect x="2656.5" y="1490.5" width="502" height="240" stroke="#696969" stroke-width="4.58333" stroke-miterlimit="8" fill="#696969"/>
        <rect x="2779.5" y="1718.5" width="256" height="241" stroke="#696969" stroke-width="4.58333" stroke-miterlimit="8" fill="#696969"/>
        <rect x="2712.5" y="1851.5" width="390" height="403" stroke="#696969" stroke-width="4.58333" stroke-miterlimit="8" fill="#696969"/>
        <path d="M2914-646 2847.65-424.902 2897.41-424.902 2814.47-341.991 2847.65-325.408 2831.06-137.475 2792.35-131.948 2775.76-43.5086C2643.06 55.9854 2499.29 50.4579 2427.41 536.873L2438.47 575.565 2377.65 597.675 2361.06 680.586 2388.71 708.224 2377.65 829.827 2256 862.992 2261.53 951.431 2311.29 1061.98 2294.71 1542.87C2512.2 1599.98 2707.57 1585.24 2914 1581.56L2914-646Z" fill="#696969" fill-rule="evenodd"/>
        <path d="M657 0 590.748 221.098 640.437 221.098 557.622 304.009 590.748 320.592 574.185 508.525 535.538 514.052 518.975 602.491C386.471 701.985 242.924 696.458 171.151 1182.87L182.193 1221.56 121.462 1243.67 104.899 1326.59 132.504 1354.22 121.462 1475.83 0 1508.99 5.52101 1597.43 55.2101 1707.98 38.6471 2188.87C255.807 2245.98 450.882 2231.24 657 2227.56L657 0Z" fill="#696969" fill-rule="evenodd" transform="matrix(-1 0 0 1 3571 -646)"/>
    </g>
</svg>
