<svg width="3097" height="4214" xmlns="http://www.w3.org/2000/svg" xmlns:xlink="http://www.w3.org/1999/xlink" xml:space="preserve" overflow="hidden"><g transform="translate(-995 121)"><path d="M2367.5 2974.5 2326.5 3181.5 2285.5 2974.5Z" stroke="#000000" stroke-width="4.58333" stroke-miterlimit="8" fill-rule="evenodd"/><path d="M2443.5 2974.5 2402 3181.5 2360.5 2974.5Z" stroke="#000000" stroke-width="4.58333" stroke-miterlimit="8" fill-rule="evenodd"/><path d="M2519.5 2974.5 2478 3181.5 2436.5 2974.5Z" stroke="#000000" stroke-width="4.58333" stroke-miterlimit="8" fill-rule="evenodd"/><path d="M2594.5 2974.5 2553.5 3181.5 2512.5 2974.5Z" stroke="#000000" stroke-width="4.58333" stroke-miterlimit="8" fill-rule="evenodd"/><path d="M2670.5 2974.5 2629 3181.5 2587.5 2974.5Z" stroke="#000000" stroke-width="4.58333" stroke-miterlimit="8" fill-rule="evenodd"/><path d="M2745.5 2974.5 2704.5 3181.5 2663.5 2974.5Z" stroke="#000000" stroke-width="4.58333" stroke-miterlimit="8" fill-rule="evenodd"/><rect x="2273.5" y="2784.5" width="502" height="240" stroke="#000000" stroke-width="4.58333" stroke-miterlimit="8"/><path d="M2318.52 3069.79 1651.5 2918.56 1218.28 3984 1623.99 2863.57 2325.39 2994.18 1630.87 2760.47 1067 3530.33 1596.49 2691.73 2332.27 2966.68 1899.05 2684.85 1603.36 3227.88 1864.67 2568 2346.02 2959.81 2737.98 2932.31 3191.83 2588.62 3528.77 3248.51 3164.32 2684.85 2751.73 2987.3 3466.88 2705.48 4017 3509.71 3446.25 2781.09 2703.6 3042.29 3432.5 2870.45 3886.35 3970.25 3418.75 2932.31 2744.86 3069.79 2318.52 3069.79Z" stroke="#000000" stroke-width="27.5" stroke-miterlimit="8" fill-rule="evenodd"/><rect x="2273.5" y="2032.5" width="502" height="240" stroke="#000000" stroke-width="4.58333" stroke-miterlimit="8"/><rect x="2396.5" y="2260.5" width="256" height="241" stroke="#000000" stroke-width="4.58333" stroke-miterlimit="8"/><rect x="2329.5" y="2393.5" width="390" height="403" stroke="#000000" stroke-width="4.58333" stroke-miterlimit="8"/><path d="M2537.5-103.5 2471.25 117.598 2520.94 117.598 2438.12 200.509 2471.25 217.092 2454.69 405.025 2416.04 410.552 2399.47 498.991C2266.97 598.485 2123.42 592.958 2051.65 1079.37L2062.69 1118.06 2001.96 1140.17 1985.4 1223.09 2013 1250.72 2001.96 1372.33 1880.5 1405.49 1886.02 1493.93 1935.71 1604.48 1919.15 2085.37C2136.31 2142.48 2331.38 2127.74 2537.5 2124.06L2537.5-103.5Z" stroke="#000000" stroke-width="4.58333" stroke-miterlimit="8" fill-rule="evenodd"/><path d="M657 0 590.748 221.098 640.437 221.098 557.622 304.009 590.748 320.592 574.185 508.525 535.538 514.052 518.975 602.491C386.471 701.985 242.924 696.458 171.151 1182.87L182.193 1221.56 121.462 1243.67 104.899 1326.59 132.504 1354.22 121.462 1475.83 0 1508.99 5.52101 1597.43 55.2101 1707.98 38.6471 2188.87C255.807 2245.98 450.882 2231.24 657 2227.56L657 0Z" stroke="#000000" stroke-width="4.58333" stroke-miterlimit="8" fill-rule="evenodd" transform="matrix(-1 0 0 1 3181.5 -103.5)"/></g></svg>
